<?xml version="1.0" standalone="no"?>
<!DOCTYPE svg PUBLIC "-//W3C//DTD SVG 20010904//EN"
 "http://www.w3.org/TR/2001/REC-SVG-20010904/DTD/svg10.dtd">
<svg version="1.0" xmlns="http://www.w3.org/2000/svg"
 width="150.000000pt" height="150.000000pt" viewBox="0 0 150.000000 150.000000"
 preserveAspectRatio="xMidYMid meet">

<g transform="translate(0.000000,150.000000) scale(0.100000,-0.100000)"
fill="#000000" stroke="none">
<path d="M755 1159 c-4 -5 -18 -8 -33 -7 -62 4 -80 -3 -139 -57 -73 -66 -99
-121 -109 -230 -5 -51 -12 -84 -21 -90 -12 -9 -11 -18 11 -59 14 -26 28 -66
31 -88 4 -22 11 -52 17 -67 24 -64 18 -81 -32 -81 -14 0 -57 -20 -94 -45 -38
-25 -74 -45 -81 -45 -7 0 -20 -9 -31 -21 -10 -11 -59 -45 -109 -76 -49 -30
-107 -66 -128 -80 l-37 -26 0 -93 0 -94 750 0 750 0 0 65 c0 59 -2 66 -27 82
-16 10 -34 23 -40 30 -12 11 -115 53 -131 53 -5 0 -32 20 -61 45 -29 25 -57
45 -62 45 -5 0 -32 15 -61 34 -29 18 -85 50 -125 69 -70 36 -72 37 -63 66 4
16 17 42 27 58 68 98 76 115 83 175 4 35 13 88 20 118 19 83 -5 159 -72 224
-27 26 -73 58 -102 71 -58 26 -123 38 -131 24z"/>
</g>
</svg>
